<svg width="12" height="16" viewBox="0 0 12 16" fill="none" xmlns="http://www.w3.org/2000/svg">
<path d="M6 0C3.03506 0 0.616821 2.41824 0.616821 5.38318C0.616821 6.22415 0.957756 7.18953 1.42071 8.24284C1.88306 9.29675 2.4794 10.4159 3.08411 11.4578C3.84606 12.7651 4.6567 14.0434 5.51432 15.29L6 16L6.48628 15.2894C6.48628 15.2894 7.70587 13.5447 8.91589 11.4578C9.5212 10.4159 10.1169 9.29675 10.5793 8.24284C11.0422 7.18953 11.3832 6.22415 11.3832 5.38318C11.3832 2.41824 8.96493 0 6 0ZM6 1.19626C8.32015 1.19626 10.1869 3.06303 10.1869 5.38318C10.1869 5.86168 9.92972 6.76845 9.49548 7.75716C9.06063 8.74527 8.46071 9.84105 7.86916 10.8597C6.93009 12.4812 6.34572 13.3389 6 13.8503C5.65428 13.3389 5.06991 12.4812 4.13084 10.8597C3.53989 9.84105 2.93936 8.74527 2.50452 7.75716C2.07028 6.76845 1.81308 5.86168 1.81308 5.38318C1.81308 3.06303 3.67985 1.19626 6 1.19626ZM6 4.18692C5.68273 4.18692 5.37846 4.31295 5.15411 4.53729C4.92977 4.76164 4.80374 5.06591 4.80374 5.38318C4.80374 5.70045 4.92977 6.00472 5.15411 6.22906C5.37846 6.4534 5.68273 6.57944 6 6.57944C6.31727 6.57944 6.62154 6.4534 6.84588 6.22906C7.07023 6.00472 7.19626 5.70045 7.19626 5.38318C7.19626 5.06591 7.07023 4.76164 6.84588 4.53729C6.62154 4.31295 6.31727 4.18692 6 4.18692Z" fill="#5374FF"/>
</svg>
