<svg width="26" height="24" viewBox="0 0 26 24" fill="none" xmlns="http://www.w3.org/2000/svg">
<path d="M22.4161 1.56936C22.8323 1.56936 23.2314 1.7347 23.5258 2.02901C23.8201 2.32332 23.9854 2.72249 23.9854 3.13871V15.6936C23.9854 16.1098 23.8201 16.509 23.5258 16.8033C23.2314 17.0976 22.8323 17.2629 22.4161 17.2629H7.37221C6.53984 17.2631 5.74162 17.5939 5.15314 18.1826L2.01442 21.3213V3.13871C2.01442 2.72249 2.17977 2.32332 2.47408 2.02901C2.76839 1.7347 3.16756 1.56936 3.58378 1.56936H22.4161ZM3.58378 0C2.75134 0 1.953 0.330685 1.36438 0.919308C0.775753 1.50793 0.445068 2.30627 0.445068 3.13871L0.445068 23.2155C0.445101 23.3708 0.491196 23.5225 0.577518 23.6516C0.66384 23.7806 0.786508 23.8812 0.929998 23.9405C1.07349 23.9998 1.23135 24.0152 1.3836 23.9848C1.53585 23.9543 1.67565 23.8794 1.7853 23.7695L6.26267 19.2921C6.55691 18.9978 6.95602 18.8324 7.37221 18.8323H22.4161C23.2485 18.8323 24.0468 18.5016 24.6355 17.913C25.2241 17.3243 25.5548 16.526 25.5548 15.6936V3.13871C25.5548 2.30627 25.2241 1.50793 24.6355 0.919308C24.0468 0.330685 23.2485 0 22.4161 0L3.58378 0Z" fill="#5374FF"/>
<path d="M8.29179 9.41616C8.29179 9.83238 8.12645 10.2315 7.83213 10.5259C7.53782 10.8202 7.13865 10.9855 6.72243 10.9855C6.30621 10.9855 5.90704 10.8202 5.61273 10.5259C5.31842 10.2315 5.15308 9.83238 5.15308 9.41616C5.15308 8.99994 5.31842 8.60077 5.61273 8.30646C5.90704 8.01214 6.30621 7.8468 6.72243 7.8468C7.13865 7.8468 7.53782 8.01214 7.83213 8.30646C8.12645 8.60077 8.29179 8.99994 8.29179 9.41616V9.41616ZM14.5692 9.41616C14.5692 9.83238 14.4039 10.2315 14.1096 10.5259C13.8152 10.8202 13.4161 10.9855 12.9999 10.9855C12.5836 10.9855 12.1845 10.8202 11.8902 10.5259C11.5958 10.2315 11.4305 9.83238 11.4305 9.41616C11.4305 8.99994 11.5958 8.60077 11.8902 8.30646C12.1845 8.01214 12.5836 7.8468 12.9999 7.8468C13.4161 7.8468 13.8152 8.01214 14.1096 8.30646C14.4039 8.60077 14.5692 8.99994 14.5692 9.41616ZM20.8466 9.41616C20.8466 9.83238 20.6813 10.2315 20.387 10.5259C20.0927 10.8202 19.6935 10.9855 19.2773 10.9855C18.8611 10.9855 18.4619 10.8202 18.1676 10.5259C17.8733 10.2315 17.7079 9.83238 17.7079 9.41616C17.7079 8.99994 17.8733 8.60077 18.1676 8.30646C18.4619 8.01214 18.8611 7.8468 19.2773 7.8468C19.6935 7.8468 20.0927 8.01214 20.387 8.30646C20.6813 8.60077 20.8466 8.99994 20.8466 9.41616Z" fill="#5374FF"/>
</svg>
