<svg width="28" height="29" viewBox="0 0 28 29" fill="none" xmlns="http://www.w3.org/2000/svg">
<path d="M27.0606 25.4307L21.9606 20.3457C23.6061 18.2494 24.4989 15.6607 24.4956 12.9957C24.4956 10.6223 23.7918 8.30222 22.4732 6.32883C21.1547 4.35544 19.2805 2.81737 17.0878 1.90912C14.8951 1.00087 12.4823 0.763226 10.1545 1.22625C7.82676 1.68927 5.68856 2.83216 4.01033 4.51039C2.3321 6.18862 1.18921 8.32682 0.726187 10.6546C0.263165 12.9824 0.500805 15.3952 1.40906 17.5879C2.31731 19.7806 3.85538 21.6547 5.82877 22.9733C7.80216 24.2919 10.1222 24.9957 12.4956 24.9957C15.1606 24.999 17.7493 24.1061 19.8456 22.4607L24.9306 27.5607C25.0701 27.7013 25.236 27.8129 25.4187 27.889C25.6015 27.9652 25.7976 28.0044 25.9956 28.0044C26.1936 28.0044 26.3897 27.9652 26.5725 27.889C26.7553 27.8129 26.9212 27.7013 27.0606 27.5607C27.2012 27.4212 27.3128 27.2553 27.389 27.0725C27.4651 26.8897 27.5043 26.6937 27.5043 26.4957C27.5043 26.2977 27.4651 26.1016 27.389 25.9188C27.3128 25.736 27.2012 25.5701 27.0606 25.4307ZM3.49561 12.9957C3.49561 11.2156 4.02345 9.47558 5.01238 7.99554C6.00132 6.5155 7.40693 5.36194 9.05146 4.68076C10.696 3.99957 12.5056 3.82134 14.2514 4.1686C15.9973 4.51587 17.6009 5.37304 18.8596 6.63171C20.1182 7.89038 20.9754 9.49403 21.3227 11.2399C21.6699 12.9857 21.4917 14.7953 20.8105 16.4398C20.1293 18.0844 18.9758 19.49 17.4957 20.4789C16.0157 21.4678 14.2756 21.9957 12.4956 21.9957C10.1087 21.9957 7.81948 21.0475 6.13165 19.3596C4.44382 17.6718 3.49561 15.3826 3.49561 12.9957Z" fill="white"/>
</svg>
