<svg width="25" height="24" viewBox="0 0 25 24" fill="none" xmlns="http://www.w3.org/2000/svg">
<path fill-rule="evenodd" clip-rule="evenodd" d="M20.4617 14.2765C20.1385 14.144 19.7926 14.0759 19.4434 14.0759C19.117 14.0573 18.7909 14.1167 18.492 14.249C18.2334 14.3738 17.9867 14.5218 17.7549 14.6913C17.5293 14.855 17.3229 15.0436 17.1395 15.2536C16.9612 15.4593 16.7881 15.6478 16.6184 15.8175C16.4643 15.9733 16.2981 16.1166 16.1213 16.2461C15.9428 16.374 15.7242 16.4334 15.5055 16.4136C15.2868 16.3938 15.0825 16.296 14.9299 16.1381C14.7412 15.9611 14.5538 15.7828 14.3676 15.6033C14.1276 15.3701 13.8328 15.089 13.4848 14.7581C13.1207 14.4127 12.7589 14.0647 12.3997 13.7142L11.2341 12.576C10.5183 11.8762 9.82655 11.1524 9.15986 10.4058C8.92042 10.1425 8.69662 9.8655 8.4896 9.57608C8.32847 9.34466 8.2479 9.17495 8.2479 9.06696C8.23794 8.87346 8.29958 8.68308 8.42103 8.53212C8.54617 8.37099 8.69531 8.20642 8.8633 8.035C9.03472 7.86701 9.22157 7.68702 9.42556 7.50017C9.63127 7.3116 9.81983 7.11104 9.98954 6.89676C10.1575 6.68249 10.3015 6.43736 10.4181 6.15965C10.5329 5.88538 10.5912 5.57168 10.5912 5.22369C10.5912 4.51632 10.3122 3.83751 9.81469 3.33463C9.49442 3.02025 9.1906 2.68954 8.90444 2.34382C8.57739 1.95436 8.224 1.5878 7.84677 1.24672C7.48058 0.911601 7.08076 0.615185 6.65368 0.362187C6.2658 0.127389 5.82143 0.002371 5.36802 0.000488281C4.66124 0.00095769 3.98313 0.279964 3.48067 0.777026C3.01612 1.24158 2.60985 1.65642 2.26187 2.02326C1.92791 2.37059 1.63143 2.7521 1.37734 3.1615C1.13108 3.56771 0.950578 4.0103 0.842501 4.47287C0.716669 5.04464 0.657989 5.62914 0.667651 6.21451C0.667651 7.16075 0.820216 8.143 1.12363 9.16124C1.42705 10.1778 1.83674 11.1926 2.35444 12.2005C2.87213 13.2102 3.50296 14.201 4.2435 15.1747C4.98404 16.1467 5.788 17.0706 6.65368 17.9466C7.51936 18.8208 8.43989 19.6299 9.41356 20.3705C10.3855 21.111 11.3815 21.7504 12.3997 22.2853C13.4162 22.8218 14.4396 23.2401 15.4664 23.5435C16.4392 23.8392 17.4496 23.9928 18.4663 23.9995C19.0474 23.9992 19.6268 23.9359 20.1942 23.8109C20.6619 23.7053 21.1094 23.5247 21.5193 23.2761C21.9136 23.0361 22.2907 22.7412 22.6576 22.3932C23.0244 22.0435 23.4341 21.6424 23.8901 21.1864C24.3874 20.6835 24.6664 20.0047 24.6666 19.2974C24.6472 18.9967 24.5884 18.6999 24.4918 18.4146C24.3915 18.1157 24.2427 17.8354 24.0512 17.5849C23.8512 17.3223 23.6407 17.0678 23.4204 16.8221C23.1934 16.5678 22.9525 16.3263 22.6987 16.0987C22.4537 15.879 22.208 15.6602 21.9616 15.4421C21.746 15.252 21.5362 15.0553 21.3325 14.8524C21.0842 14.6035 20.7879 14.4076 20.4617 14.2765ZM19.8325 22.1378C19.3853 22.2453 18.9262 22.2949 18.4663 22.2853C17.585 22.2686 16.7103 22.1289 15.8676 21.8704C14.9246 21.5854 14.0136 21.204 13.1488 20.7322C11.2263 19.6795 9.46688 18.3531 7.92563 16.7946C7.14222 16.0024 6.40449 15.1662 5.71601 14.2902C5.04759 13.4432 4.45667 12.5379 3.95037 11.5851C3.47848 10.7042 3.09216 9.77997 2.7967 8.82525C2.52825 7.96721 2.38845 7.07412 2.38186 6.17508C2.38143 5.71887 2.43553 5.26423 2.543 4.82085C2.64071 4.44716 2.78813 4.11117 2.98527 3.81804C3.18069 3.5232 3.42239 3.23692 3.70695 2.96093C3.99322 2.68323 4.31892 2.36096 4.68405 1.99583C4.77294 1.90443 4.87969 1.83231 4.99765 1.78394C5.11561 1.73558 5.24227 1.71201 5.36974 1.7147C5.47602 1.70613 5.64058 1.77641 5.86343 1.92898C6.08628 2.08154 6.32798 2.26325 6.58683 2.47753C7.14583 2.94381 7.66162 3.4596 8.1279 4.0186C8.34218 4.27573 8.52046 4.51401 8.66274 4.72829C8.80502 4.94256 8.87702 5.10713 8.87702 5.22369C8.89241 5.41787 8.83014 5.61021 8.70388 5.75853C8.57874 5.90252 8.42961 6.06709 8.26161 6.25565C8.09019 6.4425 7.90334 6.62078 7.69935 6.79048C7.49365 6.96019 7.30508 7.16075 7.13537 7.39217C6.96503 7.62572 6.82129 7.87756 6.70682 8.143C6.58604 8.43636 6.5271 8.75149 6.53369 9.06867C6.54226 9.4338 6.61425 9.77664 6.74796 10.0972C6.88167 10.4195 7.07366 10.7057 7.32394 10.9543L13.7111 17.3432C13.9568 17.5948 14.2508 17.7943 14.5753 17.9298C14.8999 18.0652 15.2485 18.1339 15.6002 18.1317C15.9218 18.1488 16.243 18.0901 16.5378 17.9603C17.0528 17.7217 17.5132 17.3798 17.8903 16.9558C18.0789 16.7501 18.2503 16.5615 18.4132 16.3918C18.5726 16.2238 18.7389 16.0798 18.9086 15.9632C19.0649 15.852 19.2516 15.7915 19.4434 15.7901C19.5686 15.7901 19.7383 15.8621 19.9525 16.0044C20.1668 16.1467 20.4034 16.3301 20.6622 16.5529C20.9211 16.7758 21.1885 17.0226 21.4662 17.29C21.7422 17.5575 21.989 17.8249 22.2033 18.094C22.4159 18.3614 22.5959 18.6031 22.7381 18.8174C22.8804 19.0317 22.9524 19.1945 22.9524 19.3128C22.9537 19.4375 22.9294 19.5612 22.881 19.6762C22.8327 19.7911 22.7613 19.895 22.6713 19.9813C22.2873 20.3568 21.9616 20.6842 21.6942 20.9585C21.4343 21.2286 21.147 21.471 20.8371 21.6818C20.5301 21.889 20.1905 22.0431 19.8325 22.1378ZM24.6666 1.20729L16.7127 9.17495H22.349V10.8892H13.7779V2.3181H15.4922V7.95443L23.4615 0.000488281L24.6666 1.20558V1.20729Z" fill="#5374FF"/>
</svg>
