<svg width="16" height="4" viewBox="0 0 16 4" fill="none" xmlns="http://www.w3.org/2000/svg">
<path d="M3.29179 2.41616C3.29179 2.83238 3.12645 3.23155 2.83213 3.52586C2.53782 3.82017 2.13865 3.98551 1.72243 3.98551C1.30621 3.98551 0.907041 3.82017 0.61273 3.52586C0.318419 3.23155 0.153076 2.83238 0.153076 2.41616C0.153076 1.99994 0.318419 1.60077 0.61273 1.30646C0.907041 1.01214 1.30621 0.846802 1.72243 0.846802C2.13865 0.846802 2.53782 1.01214 2.83213 1.30646C3.12645 1.60077 3.29179 1.99994 3.29179 2.41616ZM9.56921 2.41616C9.56921 2.83238 9.40387 3.23155 9.10956 3.52586C8.81525 3.82017 8.41608 3.98551 7.99986 3.98551C7.58364 3.98551 7.18447 3.82017 6.89015 3.52586C6.59584 3.23155 6.4305 2.83238 6.4305 2.41616C6.4305 1.99994 6.59584 1.60077 6.89015 1.30646C7.18447 1.01214 7.58364 0.846802 7.99986 0.846802C8.41608 0.846802 8.81525 1.01214 9.10956 1.30646C9.40387 1.60077 9.56921 1.99994 9.56921 2.41616ZM15.8466 2.41616C15.8466 2.83238 15.6813 3.23155 15.387 3.52586C15.0927 3.82017 14.6935 3.98551 14.2773 3.98551C13.8611 3.98551 13.4619 3.82017 13.1676 3.52586C12.8733 3.23155 12.7079 2.83238 12.7079 2.41616C12.7079 1.99994 12.8733 1.60077 13.1676 1.30646C13.4619 1.01214 13.8611 0.846802 14.2773 0.846802C14.6935 0.846802 15.0927 1.01214 15.387 1.30646C15.6813 1.60077 15.8466 1.99994 15.8466 2.41616Z" fill="#5374FF"/>
</svg>
